<svg width="67" height="67" viewBox="0 0 67 67" fill="none" xmlns="http://www.w3.org/2000/svg">
<g clip-path="url(#clip0_12_145)">
<path d="M65.9276 51.3139C65.9139 55.2417 64.3404 59.0032 61.5533 61.7709C58.7662 64.5386 54.9938 66.0858 51.066 66.0721L15.4062 65.9477C11.4784 65.934 7.71684 64.3605 4.94914 61.5734C2.18144 58.7863 0.634269 55.0139 0.647979 51.0861L0.772379 15.4663C0.786093 11.5385 2.35957 7.77696 5.14666 5.00926C7.93375 2.24156 11.7062 0.694389 15.634 0.708098L51.2938 0.832498C55.2216 0.846212 58.9831 2.41969 61.7508 5.20678C64.5185 7.99387 66.0657 11.7663 66.052 15.6941L65.9276 51.3139ZM49.67 13.3101C58.5 18.3901 51.75 33.3701 40.35 27.0301C35.87 24.5301 32.4 22.7101 29.94 21.5701C24.02 18.8301 16.38 21.4501 13.9 27.6801C13.3333 29.0934 13.0433 31.3468 13.03 34.4401C12.9833 42.7201 12.98 50.9368 13.02 59.0901C13.0266 59.3701 13.17 59.5101 13.45 59.5101L18.2 59.5001C18.4 59.5001 18.5 59.4001 18.5 59.2001C18.4933 50.5068 18.4966 41.7168 18.51 32.8301C18.51 29.7601 19.05 27.8501 21.86 26.6401C24.1466 25.6601 26.3366 25.8134 28.43 27.1001C34.51 30.8401 42.06 35.8001 49.24 33.4701C61.35 29.5501 63.15 11.9801 50.68 7.1901C49.06 6.5701 46.4033 6.25676 42.71 6.2501C33.67 6.23676 24.4666 6.24343 15.1 6.2701C13.16 6.27676 12.2066 7.2501 12.24 9.1901L12.25 9.8801C12.2605 10.446 12.4937 10.9852 12.8995 11.3817C13.3054 11.7782 13.8513 12.0002 14.42 12.0001C24.2 11.9868 33.7233 11.9934 42.99 12.0201C45.9566 12.0268 48.1833 12.4568 49.67 13.3101Z" fill="#ED1B24"/>
</g>
<defs>
<clipPath id="clip0_12_145">
<rect width="67" height="67" fill="white"/>
</clipPath>
</defs>
</svg>
