<svg width="227" height="67" viewBox="0 0 227 67" fill="none" xmlns="http://www.w3.org/2000/svg">
<g clip-path="url(#clip0_11_2)">
<path d="M65.9276 51.3139C65.9139 55.2417 64.3404 59.0032 61.5533 61.7709C58.7662 64.5386 54.9938 66.0858 51.066 66.0721L15.4062 65.9477C11.4784 65.934 7.71684 64.3605 4.94914 61.5734C2.18144 58.7863 0.634269 55.0139 0.647979 51.0861L0.772379 15.4663C0.786093 11.5385 2.35957 7.77696 5.14666 5.00926C7.93375 2.24156 11.7062 0.694389 15.634 0.708098L51.2938 0.832498C55.2216 0.846212 58.9831 2.41969 61.7508 5.20678C64.5185 7.99387 66.0657 11.7663 66.052 15.6941L65.9276 51.3139ZM49.67 13.3101C58.5 18.3901 51.75 33.3701 40.35 27.0301C35.87 24.5301 32.4 22.7101 29.94 21.5701C24.02 18.8301 16.38 21.4501 13.9 27.6801C13.3333 29.0934 13.0433 31.3468 13.03 34.4401C12.9833 42.7201 12.98 50.9368 13.02 59.0901C13.0266 59.3701 13.17 59.5101 13.45 59.5101L18.2 59.5001C18.4 59.5001 18.5 59.4001 18.5 59.2001C18.4933 50.5068 18.4966 41.7168 18.51 32.8301C18.51 29.7601 19.05 27.8501 21.86 26.6401C24.1466 25.6601 26.3366 25.8134 28.43 27.1001C34.51 30.8401 42.06 35.8001 49.24 33.4701C61.35 29.5501 63.15 11.9801 50.68 7.1901C49.06 6.5701 46.4033 6.25676 42.71 6.2501C33.67 6.23676 24.4666 6.24343 15.1 6.2701C13.16 6.27676 12.2066 7.2501 12.24 9.1901L12.25 9.8801C12.2605 10.446 12.4937 10.9852 12.8995 11.3817C13.3054 11.7782 13.8513 12.0002 14.42 12.0001C24.2 11.9868 33.7233 11.9934 42.99 12.0201C45.9566 12.0268 48.1833 12.4568 49.67 13.3101Z" fill="#ED1B24"/>
<path d="M95.75 31.23V43C95.75 43.1667 95.6667 43.25 95.5 43.25H91.75C91.6837 43.25 91.6201 43.2237 91.5732 43.1768C91.5263 43.1299 91.5 43.0663 91.5 43V12.02C91.5 11.74 91.6367 11.5767 91.91 11.53C99.2 10.29 110.84 10.01 111.33 19.54C111.82 28.98 104.06 31.3 96.32 30.7C95.94 30.6667 95.75 30.8433 95.75 31.23ZM95.74 15.32L95.76 26.34C95.76 26.5654 95.8496 26.7816 96.009 26.941C96.1684 27.1004 96.3846 27.19 96.61 27.19L100.12 27.18C101.939 27.177 103.683 26.5243 104.967 25.3653C106.252 24.2064 106.972 22.6362 106.97 21V20.62C106.969 19.8096 106.79 19.0075 106.444 18.2593C106.099 17.5111 105.592 16.8316 104.954 16.2596C104.316 15.6876 103.559 15.2342 102.726 14.9255C101.893 14.6167 101.001 14.4585 100.1 14.46L96.59 14.47C96.3646 14.47 96.1484 14.5595 95.989 14.719C95.8296 14.8784 95.74 15.0946 95.74 15.32Z" fill="#ED1B24"/>
<path d="M156.02 16.6101C157.55 16.6101 158.79 15.3699 158.79 13.8401C158.79 12.3102 157.55 11.0701 156.02 11.0701C154.49 11.0701 153.25 12.3102 153.25 13.8401C153.25 15.3699 154.49 16.6101 156.02 16.6101Z" fill="#ED1B24"/>
<path d="M119.34 23.2C119.227 23.7267 119.35 23.7934 119.71 23.4C122.243 20.6467 124.683 19.4467 127.03 19.8C127.177 19.82 127.25 19.9067 127.25 20.06V23.71C127.25 23.8767 127.167 23.95 127 23.93C121.51 23.43 120.25 27.35 120.25 32.12C120.25 35.8067 120.253 39.42 120.26 42.96C120.26 43.16 120.16 43.26 119.96 43.26L116.02 43.25C115.86 43.25 115.78 43.17 115.78 43.01L115.68 20.54C115.68 20.3534 115.773 20.26 115.96 20.26L119.22 20.24C119.353 20.24 119.43 20.31 119.45 20.45C119.577 21.3767 119.54 22.2934 119.34 23.2Z" fill="#ED1B24"/>
<path d="M155.971 59.8372C155.574 59.8372 155.214 59.7637 154.893 59.6167C154.572 59.467 154.317 59.2505 154.13 58.9674C153.944 58.6843 153.852 58.3371 153.852 57.926C153.852 57.5721 153.92 57.2808 154.056 57.0521C154.192 56.8234 154.376 56.6423 154.607 56.5089C154.839 56.3755 155.097 56.2748 155.383 56.2067C155.669 56.1387 155.96 56.087 156.257 56.0516C156.633 56.008 156.938 55.9726 157.172 55.9454C157.406 55.9154 157.576 55.8678 157.682 55.8024C157.789 55.7371 157.842 55.6309 157.842 55.4839V55.4553C157.842 55.0987 157.741 54.8223 157.54 54.6263C157.341 54.4303 157.044 54.3323 156.649 54.3323C156.238 54.3323 155.914 54.4235 155.677 54.6059C155.443 54.7856 155.281 54.9857 155.191 55.2062L154.044 54.9448C154.18 54.5637 154.379 54.256 154.64 54.0219C154.904 53.785 155.208 53.6135 155.551 53.5073C155.894 53.3984 156.254 53.344 156.633 53.344C156.883 53.344 157.149 53.3739 157.429 53.4338C157.712 53.491 157.976 53.5972 158.222 53.7524C158.469 53.9076 158.672 54.1294 158.83 54.418C158.988 54.7039 159.067 55.0755 159.067 55.5329V59.6984H157.874V58.8408H157.825C157.746 58.9987 157.628 59.1539 157.47 59.3064C157.312 59.4588 157.109 59.5854 156.862 59.6861C156.614 59.7869 156.317 59.8372 155.971 59.8372ZM156.237 58.8571C156.574 58.8571 156.863 58.7904 157.103 58.657C157.345 58.5236 157.529 58.3494 157.654 58.1343C157.782 57.9165 157.846 57.6837 157.846 57.436V56.6274C157.802 56.6709 157.718 56.7118 157.593 56.7499C157.47 56.7853 157.33 56.8166 157.172 56.8438C157.014 56.8683 156.86 56.8915 156.711 56.9132C156.561 56.9323 156.436 56.9486 156.335 56.9622C156.098 56.9922 155.881 57.0426 155.685 57.1133C155.492 57.1841 155.337 57.2862 155.22 57.4196C155.106 57.5503 155.048 57.7246 155.048 57.9424C155.048 58.2446 155.16 58.4733 155.383 58.6284C155.607 58.7809 155.891 58.8571 156.237 58.8571Z" fill="#8A8A8D"/>
<path d="M151.282 59.6985V53.4258H152.503V59.6985H151.282ZM151.899 52.4579C151.686 52.4579 151.504 52.3871 151.352 52.2456C151.202 52.1013 151.127 51.9297 151.127 51.731C151.127 51.5295 151.202 51.358 151.352 51.2164C151.504 51.0721 151.686 51 151.899 51C152.111 51 152.292 51.0721 152.442 51.2164C152.594 51.358 152.671 51.5295 152.671 51.731C152.671 51.9297 152.594 52.1013 152.442 52.2456C152.292 52.3871 152.111 52.4579 151.899 52.4579Z" fill="#8A8A8D"/>
<path d="M144.181 59.6986V51.335H145.402V54.4427H145.476C145.547 54.3121 145.649 54.161 145.782 53.9894C145.916 53.8179 146.101 53.6682 146.338 53.5402C146.574 53.4095 146.888 53.3442 147.277 53.3442C147.783 53.3442 148.235 53.4722 148.633 53.7281C149.03 53.984 149.342 54.3529 149.568 54.8348C149.797 55.3167 149.911 55.8966 149.911 56.5745C149.911 57.2524 149.798 57.8337 149.572 58.3183C149.346 58.8002 149.036 59.1718 148.641 59.4331C148.246 59.6918 147.796 59.8211 147.289 59.8211C146.908 59.8211 146.596 59.7571 146.354 59.6292C146.114 59.5012 145.927 59.3515 145.79 59.18C145.654 59.0084 145.549 58.856 145.476 58.7226H145.374V59.6986H144.181ZM145.378 56.5622C145.378 57.0033 145.442 57.3899 145.57 57.722C145.698 58.0542 145.883 58.3142 146.125 58.502C146.368 58.6872 146.664 58.7797 147.016 58.7797C147.38 58.7797 147.685 58.6831 147.93 58.4898C148.175 58.2938 148.36 58.0283 148.486 57.6934C148.614 57.3586 148.678 56.9815 148.678 56.5622C148.678 56.1484 148.615 55.7768 148.49 55.4474C148.367 55.1179 148.182 54.8579 147.934 54.6673C147.689 54.4768 147.383 54.3815 147.016 54.3815C146.662 54.3815 146.362 54.4727 146.117 54.6551C145.875 54.8375 145.691 55.0921 145.566 55.4188C145.441 55.7455 145.378 56.1266 145.378 56.5622Z" fill="#8A8A8D"/>
<path d="M139.361 59.8372C138.964 59.8372 138.605 59.7637 138.283 59.6167C137.962 59.467 137.708 59.2505 137.52 58.9674C137.335 58.6843 137.242 58.3371 137.242 57.926C137.242 57.5721 137.31 57.2808 137.446 57.0521C137.582 56.8234 137.766 56.6423 137.997 56.5089C138.229 56.3755 138.488 56.2748 138.773 56.2067C139.059 56.1387 139.351 56.087 139.647 56.0516C140.023 56.008 140.328 55.9726 140.562 55.9454C140.796 55.9154 140.966 55.8678 141.073 55.8024C141.179 55.7371 141.232 55.6309 141.232 55.4839V55.4553C141.232 55.0987 141.131 54.8223 140.93 54.6263C140.731 54.4303 140.434 54.3323 140.039 54.3323C139.628 54.3323 139.304 54.4235 139.067 54.6059C138.833 54.7856 138.671 54.9857 138.581 55.2062L137.434 54.9448C137.57 54.5637 137.769 54.256 138.03 54.0219C138.294 53.785 138.598 53.6135 138.941 53.5073C139.284 53.3984 139.645 53.344 140.023 53.344C140.274 53.344 140.539 53.3739 140.819 53.4338C141.103 53.491 141.367 53.5972 141.612 53.7524C141.859 53.9076 142.062 54.1294 142.22 54.418C142.378 54.7039 142.457 55.0755 142.457 55.5329V59.6984H141.265V58.8408H141.216C141.137 58.9987 141.018 59.1539 140.86 59.3064C140.702 59.4588 140.499 59.5854 140.252 59.6861C140.004 59.7869 139.707 59.8372 139.361 59.8372ZM139.627 58.8571C139.965 58.8571 140.253 58.7904 140.493 58.657C140.735 58.5236 140.919 58.3494 141.044 58.1343C141.172 57.9165 141.236 57.6837 141.236 57.436V56.6274C141.192 56.6709 141.108 56.7118 140.983 56.7499C140.86 56.7853 140.72 56.8166 140.562 56.8438C140.404 56.8683 140.25 56.8915 140.101 56.9132C139.951 56.9323 139.826 56.9486 139.725 56.9622C139.488 56.9922 139.272 57.0426 139.076 57.1133C138.882 57.1841 138.727 57.2862 138.61 57.4196C138.496 57.5503 138.439 57.7246 138.439 57.9424C138.439 58.2446 138.55 58.4733 138.773 58.6284C138.997 58.7809 139.281 58.8571 139.627 58.8571Z" fill="#8A8A8D"/>
<path d="M133.179 59.6984V53.4257H134.359V54.4222H134.424C134.538 54.0846 134.74 53.8191 135.029 53.6258C135.32 53.4298 135.649 53.3318 136.017 53.3318C136.093 53.3318 136.183 53.3345 136.286 53.34C136.393 53.3454 136.476 53.3522 136.535 53.3604V54.5283C136.486 54.5147 136.399 54.4998 136.274 54.4834C136.149 54.4644 136.024 54.4548 135.898 54.4548C135.61 54.4548 135.353 54.5161 135.127 54.6386C134.903 54.7584 134.726 54.9258 134.596 55.1409C134.465 55.3533 134.4 55.5956 134.4 55.8678V59.6984H133.179Z" fill="#8A8A8D"/>
<path d="M125.931 59.6986H124.591L127.601 51.335H129.059L132.069 59.6986H130.729L128.365 52.8541H128.299L125.931 59.6986ZM126.155 56.4234H130.501V57.4852H126.155V56.4234Z" fill="#8A8A8D"/>
<path d="M119.219 59.6985V53.4258H120.44V59.6985H119.219ZM119.836 52.4579C119.623 52.4579 119.441 52.3871 119.289 52.2456C119.139 52.1013 119.064 51.9297 119.064 51.731C119.064 51.5295 119.139 51.358 119.289 51.2164C119.441 51.0721 119.623 51 119.836 51C120.048 51 120.229 51.0721 120.379 51.2164C120.531 51.358 120.608 51.5295 120.608 51.731C120.608 51.9297 120.531 52.1013 120.379 52.2456C120.229 52.3871 120.048 52.4579 119.836 52.4579Z" fill="#8A8A8D"/>
<path d="M114.369 59.8211C113.862 59.8211 113.41 59.6918 113.013 59.4331C112.618 59.1718 112.308 58.8002 112.082 58.3183C111.858 57.8337 111.747 57.2524 111.747 56.5745C111.747 55.8966 111.86 55.3167 112.086 54.8348C112.314 54.3529 112.628 53.984 113.025 53.7281C113.422 53.4722 113.873 53.3442 114.377 53.3442C114.766 53.3442 115.079 53.4095 115.316 53.5402C115.556 53.6682 115.741 53.8179 115.871 53.9894C116.005 54.161 116.108 54.3121 116.182 54.4427H116.255V51.335H117.476V59.6986H116.284V58.7226H116.182C116.108 58.856 116.002 59.0084 115.863 59.18C115.727 59.3515 115.539 59.5012 115.3 59.6292C115.06 59.7571 114.75 59.8211 114.369 59.8211ZM114.638 58.7797C114.989 58.7797 115.286 58.6872 115.528 58.502C115.773 58.3142 115.959 58.0542 116.084 57.722C116.212 57.3899 116.276 57.0033 116.276 56.5622C116.276 56.1266 116.213 55.7455 116.088 55.4188C115.963 55.0921 115.779 54.8375 115.537 54.6551C115.294 54.4727 114.995 54.3815 114.638 54.3815C114.271 54.3815 113.964 54.4768 113.719 54.6673C113.474 54.8579 113.289 55.1179 113.164 55.4474C113.041 55.7768 112.98 56.1484 112.98 56.5622C112.98 56.9815 113.043 57.3586 113.168 57.6934C113.293 58.0283 113.478 58.2938 113.723 58.4898C113.971 58.6831 114.276 58.7797 114.638 58.7797Z" fill="#8A8A8D"/>
<path d="M109.155 57.0971V53.4258H110.38V59.6985H109.179V58.6122H109.114C108.969 58.9471 108.738 59.2261 108.419 59.4494C108.104 59.6699 107.71 59.7802 107.239 59.7802C106.836 59.7802 106.48 59.6917 106.169 59.5147C105.862 59.3351 105.619 59.0696 105.442 58.7184C105.268 58.3672 105.181 57.9329 105.181 57.4157V53.4258H106.402V57.2686C106.402 57.6961 106.521 58.0364 106.757 58.2896C106.994 58.5428 107.302 58.6694 107.68 58.6694C107.909 58.6694 108.136 58.6122 108.362 58.4979C108.591 58.3835 108.78 58.2106 108.93 57.9792C109.082 57.7478 109.157 57.4538 109.155 57.0971Z" fill="#8A8A8D"/>
<path d="M100.459 59.8372C100.062 59.8372 99.7023 59.7637 99.381 59.6167C99.0597 59.467 98.8052 59.2505 98.6173 58.9674C98.4322 58.6843 98.3396 58.3371 98.3396 57.926C98.3396 57.5721 98.4077 57.2808 98.5438 57.0521C98.6799 56.8234 98.8637 56.6423 99.0951 56.5089C99.3265 56.3755 99.5852 56.2748 99.8711 56.2067C100.157 56.1387 100.448 56.087 100.745 56.0516C101.121 56.008 101.426 55.9726 101.66 55.9454C101.894 55.9154 102.064 55.8678 102.17 55.8024C102.276 55.7371 102.33 55.6309 102.33 55.4839V55.4553C102.33 55.0987 102.229 54.8223 102.027 54.6263C101.829 54.4303 101.532 54.3323 101.137 54.3323C100.726 54.3323 100.402 54.4235 100.165 54.6059C99.931 54.7856 99.769 54.9857 99.6791 55.2062L98.5316 54.9448C98.6677 54.5637 98.8664 54.256 99.1278 54.0219C99.3919 53.785 99.6955 53.6135 100.038 53.5073C100.382 53.3984 100.742 53.344 101.121 53.344C101.371 53.344 101.637 53.3739 101.917 53.4338C102.2 53.491 102.464 53.5972 102.709 53.7524C102.957 53.9076 103.16 54.1294 103.318 54.418C103.476 54.7039 103.555 55.0755 103.555 55.5329V59.6984H102.362V58.8408H102.313C102.234 58.9987 102.116 59.1539 101.958 59.3064C101.8 59.4588 101.597 59.5854 101.349 59.6861C101.102 59.7869 100.805 59.8372 100.459 59.8372ZM100.725 58.8571C101.062 58.8571 101.351 58.7904 101.59 58.657C101.833 58.5236 102.016 58.3494 102.142 58.1343C102.27 57.9165 102.334 57.6837 102.334 57.436V56.6274C102.29 56.6709 102.206 56.7118 102.08 56.7499C101.958 56.7853 101.818 56.8166 101.66 56.8438C101.502 56.8683 101.348 56.8915 101.198 56.9132C101.049 56.9323 100.923 56.9486 100.823 56.9622C100.586 56.9922 100.369 57.0426 100.173 57.1133C99.98 57.1841 99.8248 57.2862 99.7077 57.4196C99.5934 57.5503 99.5362 57.7246 99.5362 57.9424C99.5362 58.2446 99.6478 58.4733 99.8711 58.6284C100.094 58.7809 100.379 58.8571 100.725 58.8571Z" fill="#8A8A8D"/>
<path d="M95.8924 53.5319C95.8488 53.1453 95.6692 52.8458 95.3533 52.6335C95.0375 52.4184 94.64 52.3108 94.1609 52.3108C93.8178 52.3108 93.5211 52.3653 93.2706 52.4742C93.0201 52.5804 92.8255 52.7274 92.6866 52.9152C92.5505 53.1004 92.4824 53.3114 92.4824 53.5482C92.4824 53.747 92.5287 53.9185 92.6213 54.0628C92.7166 54.2071 92.8404 54.3282 92.9929 54.4262C93.1481 54.5215 93.3142 54.6019 93.4911 54.6672C93.6681 54.7298 93.8382 54.7815 94.0016 54.8224L94.8184 55.0347C95.0852 55.1001 95.3588 55.1886 95.6392 55.3002C95.9196 55.4118 96.1796 55.5588 96.4192 55.7412C96.6588 55.9236 96.8521 56.1496 96.9991 56.4191C97.1489 56.6887 97.2237 57.0113 97.2237 57.387C97.2237 57.8607 97.1012 58.2814 96.8562 58.6489C96.6139 59.0164 96.2613 59.3064 95.7985 59.5188C95.3384 59.7311 94.7816 59.8373 94.1282 59.8373C93.502 59.8373 92.9602 59.7379 92.5028 59.5392C92.0455 59.3404 91.6874 59.0586 91.4288 58.6938C91.1702 58.3263 91.0272 57.8907 91 57.387H92.266C92.2905 57.6892 92.3885 57.941 92.56 58.1425C92.7343 58.3413 92.9561 58.4896 93.2257 58.5876C93.4979 58.6829 93.796 58.7306 94.12 58.7306C94.4767 58.7306 94.7939 58.6748 95.0716 58.5631C95.352 58.4488 95.5725 58.2909 95.7331 58.0894C95.8938 57.8852 95.9741 57.647 95.9741 57.3748C95.9741 57.127 95.9033 56.9242 95.7617 56.7663C95.6229 56.6084 95.4337 56.4777 95.1941 56.3742C94.9572 56.2708 94.689 56.1796 94.3896 56.1006L93.4013 55.8311C92.7315 55.6487 92.2006 55.3805 91.8086 55.0266C91.4193 54.6726 91.2246 54.2044 91.2246 53.6217C91.2246 53.1398 91.3553 52.7192 91.6167 52.3598C91.878 52.0005 92.2319 51.7214 92.6784 51.5227C93.1249 51.3212 93.6286 51.2205 94.1895 51.2205C94.7557 51.2205 95.2553 51.3198 95.6882 51.5186C96.1238 51.7173 96.4669 51.9909 96.7173 52.3394C96.9678 52.6852 97.0985 53.0827 97.1094 53.5319H95.8924Z" fill="#8A8A8D"/>
<path d="M143.56 41.22C143.573 40.7067 143.403 40.6334 143.05 41C140.423 43.6934 137.153 44.47 133.24 43.33C127.7 41.71 128.36 33.46 132.37 30.86C134.95 29.1867 137.857 28.4167 141.09 28.55C142.743 28.6234 143.29 27.8834 142.73 26.33L142.63 26.05C141.99 24.29 140.737 23.3067 138.87 23.1C136.583 22.8467 134.45 23.29 132.47 24.43C132.003 24.7034 131.677 24.5834 131.49 24.07L130.93 22.47C130.73 21.9167 130.897 21.5134 131.43 21.26C136.17 19.01 144.57 18.48 146.69 24.37C147.063 25.4167 147.24 27.2 147.22 29.72C147.173 34.1267 147.297 38.4467 147.59 42.68C147.617 43.0734 147.433 43.2667 147.04 43.26L143.99 43.24C143.657 43.24 143.497 43.0734 143.51 42.74L143.56 41.22ZM136.44 32.67C130.99 35.14 134.03 42.59 139.76 40.01C143.27 38.43 143.2 35.76 142.94 32.1C142.92 31.8134 142.767 31.6667 142.48 31.66C140.14 31.5734 138.127 31.91 136.44 32.67Z" fill="#ED1B24"/>
<path d="M169.3 23.01C170.23 22.26 170.98 21.29 171.97 20.76C177.78 17.7 184.13 21.06 184.66 27.76C184.827 29.8266 184.847 34.9033 184.72 42.99C184.72 43.1633 184.637 43.25 184.47 43.25H180.51C180.317 43.25 180.223 43.1566 180.23 42.97C180.27 38.9433 180.267 34.8533 180.22 30.7C180.193 28.32 179.91 26.6133 179.37 25.58C177.42 21.85 171.35 23.22 169.87 26.9C169.483 27.86 169.28 29.4533 169.26 31.68C169.233 35.52 169.237 39.27 169.27 42.93C169.27 43.1433 169.16 43.25 168.94 43.25H165.53C165.21 43.2566 165.047 43.0966 165.04 42.77L164.91 20.92C164.903 20.4733 165.123 20.25 165.57 20.25L167.99 20.24C168.497 20.24 168.75 20.49 168.75 20.99V22.75C168.75 23.2233 168.933 23.31 169.3 23.01Z" fill="#ED1B24"/>
<path d="M202.58 24.36C200.33 22.69 195.33 22.01 194.52 25.75C193.53 30.31 207.05 29.29 204.76 38.52C203.2 44.81 195.3 44.35 190.29 42.68C189.757 42.5 189.58 42.1433 189.76 41.61L190.46 39.46C190.62 38.9866 190.923 38.8566 191.37 39.07C194.26 40.47 199.41 41.77 200.45 37.84C201.83 32.64 190.61 33.54 190.25 26.94C189.85 19.63 198.8 18.44 203.7 20.82C204.013 20.9733 204.117 21.22 204.01 21.56L203.17 24.17C203.063 24.51 202.867 24.5733 202.58 24.36Z" fill="#ED1B24"/>
<path d="M222.04 41.03C219.073 43.85 215.857 44.6367 212.39 43.39C208.08 41.85 207.12 36.46 209.43 32.93C211.82 29.26 217.46 28.46 221.44 28.47C221.707 28.47 221.853 28.3334 221.88 28.06C222.39 21.78 214.87 22.3 211.22 24.6C211.166 24.6355 211.105 24.6578 211.041 24.6651C210.977 24.6724 210.912 24.6645 210.852 24.6421C210.791 24.6197 210.737 24.5834 210.693 24.5362C210.65 24.4889 210.618 24.432 210.6 24.37L209.94 22.05C209.84 21.7167 209.947 21.4767 210.26 21.33C214.71 19.24 223.12 18.22 225.48 23.98C227.45 28.83 226.42 37.32 226.61 42.64C226.623 43.0534 226.427 43.2567 226.02 43.25H223.27C222.777 43.25 222.537 43.0067 222.55 42.52L222.57 41.26C222.577 40.7667 222.4 40.69 222.04 41.03ZM216.99 40.49C221.52 39.95 222.58 36.31 221.86 32.04C221.82 31.8 221.677 31.6734 221.43 31.66C218.777 31.5667 216.607 31.9734 214.92 32.88C211.2 34.87 212.29 41.04 216.99 40.49Z" fill="#ED1B24"/>
<path d="M157.97 20.25H154.03C153.875 20.25 153.75 20.3754 153.75 20.53V42.97C153.75 43.1246 153.875 43.25 154.03 43.25H157.97C158.125 43.25 158.25 43.1246 158.25 42.97V20.53C158.25 20.3754 158.125 20.25 157.97 20.25Z" fill="#ED1B24"/>
</g>
<defs>
<clipPath id="clip0_11_2">
<rect width="227" height="67" fill="white"/>
</clipPath>
</defs>
</svg>
